<?xml version="1.0" encoding="UTF-8" standalone="no"?>
<!-- Created with Inkscape (http://www.inkscape.org/) -->

<svg
   xmlns:dc="http://purl.org/dc/elements/1.1/"
   xmlns:cc="http://creativecommons.org/ns#"
   xmlns:rdf="http://www.w3.org/1999/02/22-rdf-syntax-ns#"
   xmlns:svg="http://www.w3.org/2000/svg"
   xmlns="http://www.w3.org/2000/svg"
   xmlns:sodipodi="http://sodipodi.sourceforge.net/DTD/sodipodi-0.dtd"
   xmlns:inkscape="http://www.inkscape.org/namespaces/inkscape"
   version="1.1"
   id="svg1408"
   xml:space="preserve"
   width="595.97064"
   height="593.97064"
   viewBox="0 0 595.97064 593.97064"
   sodipodi:docname="city-logo-publicdomainvectors.org.svg"
   inkscape:version="0.92.4 (5da689c313, 2019-01-14)"><metadata
     id="metadata1414"><rdf:RDF><cc:Work
         rdf:about=""><dc:format>image/svg+xml</dc:format><dc:type
           rdf:resource="http://purl.org/dc/dcmitype/StillImage" /><dc:title></dc:title></cc:Work></rdf:RDF></metadata><defs
     id="defs1412"><clipPath
       clipPathUnits="userSpaceOnUse"
       id="clipPath1424"><path
         d="M 0,445.478 H 446.978 V 0 H 0 Z"
         id="path1422"
         inkscape:connector-curvature="0" /></clipPath></defs><sodipodi:namedview
     pagecolor="#ffffff"
     bordercolor="#666666"
     borderopacity="1"
     objecttolerance="10"
     gridtolerance="10"
     guidetolerance="10"
     inkscape:pageopacity="0"
     inkscape:pageshadow="2"
     inkscape:window-width="1920"
     inkscape:window-height="1018"
     id="namedview1410"
     showgrid="false"
     inkscape:zoom="1.1592089"
     inkscape:cx="415.27608"
     inkscape:cy="247.90724"
     inkscape:window-x="-8"
     inkscape:window-y="-8"
     inkscape:window-maximized="1"
     inkscape:current-layer="g1416" /><g
     id="g1416"
     inkscape:groupmode="layer"
     inkscape:label="city-logo-publicdomainvectors.org"
     transform="matrix(1.3333333,0,0,-1.3333333,0,593.97067)"><g
       id="g1418"><g
         id="g1420"
         clip-path="url(#clipPath1424)"><path
           d="m 111.333,230.081 c -0.005,0 -0.144,0.41 -0.144,0.526 0,4.715 3.709,9.051 10.709,11.516 v 4.958 h 25 v -4.369 c 8,-2.352 12.752,-6.986 12.752,-12.105 0,-0.116 0.118,-0.526 0.113,-0.526 h 6.135 V 128.198 l 11,-1.16 v 168.043 h 15 v 12 h 21.654 l 3.372,44.51 3.372,-44.51 h 31.602 v -12 h 12 v -150 h 8 v 7 h 6 v 1 h -6 v 7 h 6 v 2 h -6 v 7 h 6 v 1 h -6 v 7 h 6 v 2 h -6 v 7 h 6 v 2 h -6 v 6 h 6 v 2 h -6 v 7 h 6 v 3 h -6 v 7 h 6 v 2 h -6 v 7 h 6 v 1 h -6 v 7 h 6 v 11 h 5 v 1 h 10 v 7 h 44 v -7 h 11 v -1 h 5 v -78.504 c 9,18.299 13.424,38.682 13.424,60.163 0,78.83 -64.069,142.962 -142.898,142.962 -78.829,0 -143.057,-64.132 -143.057,-142.962 0,-29.673 9.531,-57.262 24.531,-80.134 v 87.475 z"
           style="fill:#fbb03b;fill-opacity:1;fill-rule:nonzero;stroke:none"
           id="path1426"
           inkscape:connector-curvature="0" /><path
           d="m 352.897,162.577 v 78.504 h -5 v 1 h -11 v 7 h -44 v -7 h -10 v -1 h -5 v -11 h -6 v -7 h 6 v -1 h -6 v -7 h 6 v -2 h -6 v -7 h 6 v -3 h -6 v -7 h 6 v -2 h -6 v -6 h 6 v -2 h -6 v -7 h 6 v -2 h -6 v -7 h 6 v -1 h -6 v -7 h 6 v -2 h -6 v -7 h 6 v -1 h -6 v -7 h -8 v 150 h -12 v 12 h -31.601 l -3.372,44.51 -3.372,-44.51 h -21.654 v -12 h -15 V 127.038 l -11,1.16 v 101.883 h -6.135 c 0.005,0 -0.113,0.41 -0.113,0.526 0,5.118 -4.752,9.753 -12.752,12.105 v 4.369 h -25 v -4.958 c -7,-2.465 -10.709,-6.801 -10.709,-11.516 0,-0.116 0.139,-0.526 0.144,-0.526 h -6.435 v -87.475 c -15,22.872 -24.499,50.461 -24.499,80.134 0,78.83 64.196,142.962 143.025,142.962 78.829,0 142.866,-64.132 142.866,-142.962 0,-21.481 -4.393,-41.864 -13.393,-60.163 m -55,-12.496 h -7 v 7 h 7 z m -7,44 h 7 v -6 h -7 z m 0,18 h 7 v -7 h -7 z m 37.097,15.686 c -0.117,-0.87 -0.858,-1.546 -1.76,-1.546 -0.982,0 -1.783,0.8 -1.783,1.783 0,0.983 0.801,1.782 1.783,1.782 0.902,0 1.643,-0.675 1.76,-1.545 -0.006,-0.081 -0.024,-0.156 -0.024,-0.237 0,-0.081 0.018,-0.157 0.024,-0.237 m 5.517,-0.004 c -0.119,-0.869 -0.859,-1.542 -1.759,-1.542 -0.983,0 -1.782,0.8 -1.782,1.783 0,0.983 0.799,1.782 1.782,1.782 0.9,0 1.64,-0.673 1.759,-1.541 -0.006,-0.081 -0.025,-0.159 -0.025,-0.241 0,-0.083 0.019,-0.16 0.025,-0.241 m 5.518,0.009 c -0.115,-0.873 -0.856,-1.551 -1.758,-1.551 -0.984,0 -1.785,0.8 -1.785,1.783 0,0.983 0.801,1.782 1.785,1.782 0.902,0 1.643,-0.678 1.758,-1.55 -0.007,-0.078 -0.024,-0.153 -0.024,-0.232 0,-0.08 0.017,-0.154 0.024,-0.232 m -13.132,-22.691 v 5.357 1.643 h 6 v -1.643 -5.357 z m 6,-17 h -6 v 6 h 6 z m 11,-23 h -7 v 7 h 7 z m -0.11,61.14 c -0.983,0 -1.782,0.8 -1.782,1.783 0,0.983 0.799,1.782 1.782,1.782 0.984,0 1.783,-0.799 1.783,-1.782 0,-0.983 -0.799,-1.783 -1.783,-1.783 m -20.311,1.546 c -0.117,-0.87 -0.857,-1.546 -1.76,-1.546 -0.982,0 -1.783,0.8 -1.783,1.783 0,0.983 0.801,1.782 1.783,1.782 0.903,0 1.643,-0.675 1.76,-1.545 -0.006,-0.081 -0.025,-0.156 -0.025,-0.237 0,-0.081 0.019,-0.157 0.025,-0.237 m -5.579,-62.686 h -7 v 7 h 7 z m -5.459,62.682 c -0.118,-0.869 -0.858,-1.542 -1.759,-1.542 -0.982,0 -1.782,0.8 -1.782,1.783 0,0.983 0.8,1.782 1.782,1.782 0.901,0 1.641,-0.673 1.759,-1.541 -0.003,-0.081 -0.022,-0.159 -0.022,-0.241 0,-0.083 0.019,-0.16 0.022,-0.241 m 5.459,-39.682 h -7 v 6 h 7 z m 0.06,39.691 c -0.116,-0.873 -0.856,-1.551 -1.758,-1.551 -0.985,0 -1.783,0.8 -1.783,1.783 0,0.983 0.798,1.782 1.783,1.782 0.902,0 1.642,-0.678 1.758,-1.55 -0.004,-0.078 -0.024,-0.153 -0.024,-0.232 0,-0.08 0.02,-0.154 0.024,-0.232 m -11.036,0 c -0.115,-0.873 -0.856,-1.551 -1.759,-1.551 -0.983,0 -1.782,0.8 -1.782,1.783 0,0.983 0.799,1.782 1.782,1.782 0.903,0 1.644,-0.678 1.759,-1.55 -0.003,-0.078 -0.024,-0.153 -0.024,-0.232 0,-0.08 0.021,-0.154 0.024,-0.232 m -5.517,-0.009 c -0.119,-0.869 -0.858,-1.542 -1.758,-1.542 -0.982,0 -1.783,0.8 -1.783,1.783 0,0.983 0.801,1.782 1.783,1.782 0.9,0 1.639,-0.673 1.758,-1.541 -0.004,-0.081 -0.024,-0.159 -0.024,-0.241 0,-0.083 0.02,-0.16 0.024,-0.241 m -5.518,0.009 c -0.115,-0.873 -0.855,-1.551 -1.759,-1.551 -0.983,0 -1.782,0.8 -1.782,1.783 0,0.983 0.799,1.782 1.782,1.782 0.904,0 1.644,-0.678 1.759,-1.55 -0.004,-0.078 -0.023,-0.153 -0.023,-0.232 0,-0.08 0.019,-0.154 0.023,-0.232 M 193.898,140.081 h -11 v 10 h 11 z m 0,53 h -11 v 10 h 11 z m 0,53 h -11 v 10 h 11 z m 0,25 h -11 v 11 h 11 z m 62.999,-36 h -10 v 11 h 10 z m -10,-59 h 10 v -11 h -10 z m -12,-36 h -11 v 10 h 11 z m 0,65 h -11 v 10 h 11 z m -10.999,77 h 11 v -11 h -11 z m 10.999,-47 h -11 v 11 h 11 z m -22.999,-95 h -10 v 10 h 10 z m 0,25 h -10 v 11 h 10 z m -10,117 h 10 v -11 h -10 z m 10,-77 h -10 v 10 h 10 z m -95,5 h -6 v 8 h 6 z m 6,-17 h 4 v -4 h -4 z m 0,-24 h 4 v -5 h -4 z m 0,-26 h 4 v -3 h -4 z m -8,50 h 3 v -4 h -3 z m 3,-53 h -3 v 3 h 3 z m -3,29 h 3 v -5 h -3 z m 17,41 h -9 v 8 h 2.101 c 2.214,0 4.899,-0.66 6.899,-0.858 z m 14,8 v -8 h -7 v 7.156 c 3,0.205 5.047,0.844 7.198,0.844 z m 12,-8 h -5 v 8 h 5 z m -11,-70 h -3 v 3 h 3 z m 0,24 h -3 v 5 h 3 z m 0,25 h -3 v 4 h 3 z m -12,4 h 4 v -4 h -4 z m 4,-53 h -4 v 3 h 4 z m -4,29 h 4 v -5 h -4 z m 88.591,241.143 c -103.38,0 -187.485,-84.104 -187.485,-187.484 0,-103.38 84.105,-187.485 187.485,-187.485 103.38,0 187.485,84.105 187.485,187.485 0,103.38 -84.105,187.484 -187.485,187.484"
           style="fill:#000000;fill-opacity:1;fill-rule:nonzero;stroke:none"
           id="path1428"
           inkscape:connector-curvature="0" /></g></g></g></svg>